<?xml version="1.0" encoding="UTF-8"?>
<svg id="Calque_1" data-name="Calque 1" xmlns="http://www.w3.org/2000/svg" viewBox="0 0 1080 1080">
  <defs>
    <style>
      .cls-1 {
        stroke: #7cc6fe;
      }

      .cls-1, .cls-2, .cls-3 {
        fill: none;
      }

      .cls-1, .cls-3 {
        stroke-linecap: round;
        stroke-miterlimit: 10;
        stroke-width: 3.44px;
      }

      .cls-4 {
        fill: #6495ed;
      }

      .cls-5 {
        fill: #7cc6fe;
      }

      .cls-3 {
        stroke: #6495ed;
      }
    </style>
  </defs>
  <g>
    <path class="cls-4" d="M532.2,336.76c-9.5-3.23-15.87,2.6-20.3,10.55-7.5,13.46-11.31,28.55-15.31,43.31-3,11.06-6.1,22.07-8.65,33.25-.98,4.31-2.31,9.17-6.23,11.22-.47.25-1,.45-1.52.38-1.21-.15-1.8-1.53-2.11-2.71-2.3-8.88-1.93-18.35-2.48-27.47-.45-7.44-.98-14.88-1.65-22.31-1.47-16.34-3.39-32.81-7.37-48.75-1.61-6.46-3.54-12.97-6.59-18.92-2.04-3.99-4.84-8.38-9.11-10.26-1.29-.57-2.68-.87-4.09-.85-12.82.19-12.71,25.02-13.03,33.22-1.07,27.74,2.21,55.59,4.2,83.24.48,6.61.66,14.1-3.95,18.87-.63.66-1.42,1.27-2.33,1.3-1.27.05-2.29-1.02-3.01-2.07-2.28-3.33-3.45-7.28-4.56-11.16-6.37-22.23-11.32-44.94-19.08-66.75-3.71-10.41-12.1-38.08-27.38-36.38-13.63,1.54-7.1,35.13-6.02,42.74,3.72,26.19,9.9,52.18,17.94,77.37,1.69,5.3,3.29,11.71-.33,15.94-.56.65-1.23,1.22-2.04,1.5-3.15,1.08-5.78-2.51-7.19-5.52-7.2-15.4-14.39-30.8-21.59-46.2-4.07-8.71-13.15-29.78-26.2-26.31-12.18,3.24-5.68,25.96-3.83,33.68,12.36,51.37,32.6,103.32,60.63,148.17,3.08,4.92,6.3,9.83,9.98,14.31,2.89,3.53,6.06,6.8,9.66,9.61,20.64,16.11,55,17.01,77.76,5.09,13.52-7.08,24.27-18.13,33.89-30.32-4.22-3.93-12.23-8.68-16.89-11.78-25.09-16.75-36.63-25.66-74.23-51.65-2.16-1.49-6.24-5.11-8.24-6.8-2.26-1.91-4.38-4.99-4.93-7.9-4.75-25.04,23.57-25.33,40.25-24.89,18.56.5,41.08,9.27,57.09,18.01,1.52.83,3.04,1.67,4.59,2.41-2.33-1.23-3.61-3.93-3.83-6.56-.22-2.67.47-5.33,1.16-7.92,7.09-26.83,14.81-53.59,19.82-80.91,1.65-9.03,10.75-45.12-2.91-49.77Z"/>
    <path class="cls-5" d="M754.14,298.58c-18.5-1-24.78,29.83-27.8,42.66-5.34,22.69-10.69,45.38-16.03,68.07-1.05,4.44-3.57,9.99-8.1,9.43-1.16-.14-2.24-.72-3.16-1.44-6.04-4.67-5.69-13.72-4.91-21.31,3.74-36.07,4.76-72.69,2.4-108.89-.68-10.52-1.34-57.44-20.06-55.68-20.99,2-24.51,41.49-26.56,56.51-4.31,31.45-4.58,63.32-6.91,94.95-.41,5.52-.86,11.15-3,16.26-.67,1.61-1.74,3.33-3.46,3.62-1.23.21-2.46-.39-3.49-1.09-7.52-5.11-9.38-15.21-10.59-24.22-5.07-37.67-8.47-75.97-17.68-112.91-2.72-10.92-9.54-44.28-26.8-40.94-1.9.37-3.69,1.16-5.26,2.29-5.2,3.73-7.72,10.4-9.35,16.33-2.42,8.84-3.19,18.12-3.54,27.24-.86,22.52,1.17,45.16,3.77,67.51,1.18,10.16,2.56,20.29,4.04,30.41,1.82,12.39,4.97,25,4.37,37.57-.08,1.67-.49,3.69-2.07,4.23-.69.24-1.45.11-2.15-.09-5.83-1.65-8.97-7.8-11.5-13.31-6.56-14.29-13.8-28.2-20.93-42.2-9.51-18.69-18.85-37.89-32.7-53.85-8.17-9.42-18.36-15.46-30.2-8.47-17.03,10.06,5.29,55.96,10.04,67.62,14.38,35.27,32.24,69.04,49.28,103.06,1.65,3.29,3.32,6.66,3.77,10.3.06.45.09.9.1,1.35,9.71-7.51,22.16-14.96,33.45-17.63,11.84-2.81,33.23-3.2,31.77,14.61-.18,2.15-.15,2.94-2.1,6.02-1.02,1.61-4.61,6.38-5.83,7.85-17.4,21.06-24.07,26.79-42.7,47.08-9.8,10.67-20.83,21.4-30.02,33.04,25.7,23.93,52.19,50.68,85.99,60.28,33.9,9.63,79.78-1.21,102.96-28.63,4.04-4.78,7.39-10.06,10.28-15.6,3.68-7.05,6.63-14.54,9.38-22.01,25.06-68.06,37.66-143.46,39.86-215.89.33-10.88,2.68-43.2-14.58-44.14Z"/>
    <path class="cls-1" d="M525.6,567.06s-105.63-69.44-107.8-76.44c-.2-.35-7.67-12.87,2.61-21.68,0,0,5.45-8.02,29.8-7.53.66,0,24.72-3.07,66.42,19.87,1.43.7,3.61,1.68,3.61,1.68"/>
    <path class="cls-3" d="M520.24,482.96s25.65-17.7,41.54-24.68c.84-.32,22.99-9.54,35.56,1.17.44.48,10.45,10.34-4.39,25-.49.59-87.81,93.81-87.81,93.81"/>
  </g>
  <g>
    <rect class="cls-2" x="34.32" y="727.7" width="1025.36" height="140.92"/>
    <path d="M162.21,808.55c-3.76-2.02-6.65-4.69-8.67-7.99-2.03-3.3-3.04-6.88-3.04-10.73,0-2.02.52-3.51,1.57-4.46,1.04-.95,2.45-1.42,4.21-1.42,4.05,0,6.14,1.67,6.27,5,.13,3.79,1.42,6.71,3.87,8.77,2.45,2.06,5.34,3.09,8.67,3.09,2.94,0,5.49-.67,7.64-2.01,2.16-1.34,3.23-3.32,3.23-5.93,0-1.96-.65-3.59-1.96-4.9-1.31-1.31-2.91-2.35-4.8-3.14-1.9-.78-4.35-1.6-7.35-2.45-3.92-1.11-7.27-2.25-10.04-3.43-2.78-1.18-5.39-3.12-7.84-5.83-2.45-2.71-3.68-6.22-3.68-10.54,0-3.92,1.04-7.43,3.14-10.54,2.09-3.1,4.93-5.52,8.53-7.25,3.59-1.73,7.51-2.6,11.76-2.6s8.48.93,12.1,2.79,6.47,4.33,8.53,7.4c2.06,3.07,3.09,6.34,3.09,9.8,0,2.03-.51,3.46-1.52,4.31-1.01.85-2.5,1.27-4.46,1.27-1.83,0-3.17-.42-4.02-1.27-.85-.85-1.47-2.19-1.86-4.02-.39-2.61-1.62-4.87-3.68-6.76-2.06-1.89-4.79-2.84-8.18-2.84s-5.99.92-8.18,2.74c-2.19,1.83-3.28,4.21-3.28,7.15,0,1.76.55,3.17,1.67,4.21,1.11,1.05,2.48,1.88,4.12,2.5,1.63.62,4.61,1.58,8.92,2.89,3.46,1.05,6.66,2.27,9.6,3.67,2.94,1.41,5.57,3.48,7.89,6.22,2.32,2.74,3.48,6.21,3.48,10.39,0,3.72-1.01,7.02-3.04,9.9-2.03,2.88-4.79,5.1-8.28,6.66-3.5,1.57-7.33,2.35-11.52,2.35-4.84,0-9.13-1.01-12.89-3.04Z"/>
    <path d="M265.06,806c.2.59.29,1.11.29,1.57,0,1.63-.67,2.89-2.01,3.77-1.34.88-2.92,1.32-4.75,1.32-1.44,0-2.68-.29-3.72-.88-1.05-.59-1.73-1.47-2.06-2.65l-3.72-13.52-22.64-.1c-.46,1.57-.9,3.05-1.32,4.46-.43,1.41-.8,2.7-1.13,3.87l-1.47,5c-.39,1.24-1.09,2.17-2.11,2.79-1.01.62-2.21.93-3.58.93-1.83,0-3.41-.46-4.75-1.37-1.34-.92-2.01-2.12-2.01-3.63,0-.33.06-.88.2-1.67l13.92-41.75,3.43-10.49c1.37-4.25,2.87-7.28,4.51-9.11,1.63-1.83,3.76-2.74,6.37-2.74s4.57.82,6.08,2.45c1.5,1.63,2.91,4.48,4.21,8.53,2.81,8.49,6.11,19.18,9.9,32.05h2.74c1.37,0,2.45.46,3.23,1.37.78.92,1.18,2.25,1.18,4.02,0,3.66-1.14,5.49-3.43,5.49h-.49l3.14,10.29ZM246.05,784.64c-1.96-7.32-3.66-13.39-5.1-18.23-.13-.46-.26-.85-.39-1.18-.13-.33-.23-.65-.29-.98-.52-1.83-.95-3.17-1.27-4.02-.33-.85-.65-1.27-.98-1.27s-.65.43-.98,1.27c-.33.85-.65,1.9-.98,3.14-.33,1.31-.56,2.16-.69,2.55l-5.59,18.62,16.27.1Z"/>
    <path d="M343.36,792.67c.13,5.88.2,10.45.2,13.72,0,1.83-.52,3.27-1.57,4.31-1.05,1.04-2.52,1.57-4.41,1.57s-3.38-.52-4.46-1.57c-1.08-1.04-1.62-2.38-1.62-4.02-.07-6.21-.1-15.22-.1-27.05,0-7.77-.25-13.62-.73-17.54-.49-3.92-1.16-5.88-2.01-5.88-1.24,0-3.43,4.21-6.57,12.64-1.24,3.4-2.65,8.46-4.21,15.19-.72,2.94-2.91,4.41-6.57,4.41-1.9,0-3.38-.34-4.46-1.03-1.08-.69-1.85-1.71-2.3-3.09l-1.08-4.02c-1.57-5.75-2.71-9.6-3.43-11.56-1.05-2.74-2.25-5.52-3.63-8.33-1.37-2.81-2.32-4.21-2.84-4.21-1.37,0-2.19,7.64-2.45,22.93-.07,2.22-.1,5.29-.1,9.21l.1,18.52c0,1.5-.56,2.7-1.67,3.58-1.11.88-2.65,1.32-4.61,1.32s-3.43-.51-4.41-1.52c-.98-1.01-1.47-2.66-1.47-4.95,0-3.14.06-7.58.2-13.33l.1-13.03c0-13.13,1-22.62,2.99-28.47,1.99-5.85,5.21-8.77,9.65-8.77,3.59,0,6.65,1.6,9.16,4.8,2.51,3.2,4.46,6.81,5.83,10.83,1.37,4.02,2.78,8.93,4.21,14.75,2.09-8.36,4.67-15.52,7.74-21.46,3.07-5.94,7.12-8.92,12.15-8.92,3.14,0,5.59,1.44,7.35,4.31s2.99,7.02,3.67,12.45c.69,5.42,1.06,12.35,1.13,20.78,0,3.2.06,7.68.2,13.43Z"/>
    <path d="M356.98,802.08c.65-1.11,1.7-1.63,3.14-1.57h1.08c.72-7.58,1.08-16.4,1.08-26.46l-.1-17.93c-.39.13-.62.2-.69.2-.92.2-1.71-.1-2.4-.88s-1.03-1.76-1.03-2.94c0-1.57.47-2.86,1.42-3.87.95-1.01,2.5-1.98,4.65-2.89,2.81-1.18,5.8-2.06,8.97-2.65,3.17-.59,6.25-.88,9.26-.88,5.29,0,10.03.77,14.21,2.3,4.18,1.54,7.45,3.74,9.8,6.62,2.35,2.88,3.53,6.31,3.53,10.29,0,3.66-1.32,7.01-3.97,10.04-2.65,3.04-6.42,5.01-11.32,5.93,4.83,1.11,8.44,3.05,10.83,5.83,2.38,2.78,3.58,5.93,3.58,9.46,0,4.12-1.13,7.61-3.38,10.49-2.25,2.88-5.29,5.05-9.11,6.52-3.82,1.47-8.09,2.21-12.79,2.21-2.35,0-5.03-.07-8.04-.2l-3.82-.2c-.98,2.02-2.94,3.04-5.88,3.04-2.74,0-4.54-1.11-5.39-3.33l-.78-.1c-1.31,0-2.27-.49-2.89-1.47-.62-.98-.93-2.22-.93-3.72s.33-2.71.98-3.82ZM381.87,801.59c10.19,0,15.29-3.2,15.29-9.6s-4.8-9.83-14.41-10.09c-2.22-.06-3.84-.39-4.85-.98-1.01-.59-1.52-1.86-1.52-3.82,0-1.83.54-3.1,1.62-3.82,1.08-.72,2.6-1.08,4.56-1.08,4.31-.13,7.97-.82,10.98-2.06,3-1.24,4.51-3.89,4.51-7.94,0-3.2-1.37-5.67-4.12-7.4-2.74-1.73-6.7-2.6-11.86-2.6-2.68,0-5.36.36-8.04,1.08.13,5.36.2,12.25.2,20.68,0,4.7-.1,8.93-.29,12.69-.2,3.76-.56,8.64-1.08,14.65,2.94.2,5.94.29,9.02.29Z"/>
    <path d="M476.34,806c.2.59.29,1.11.29,1.57,0,1.63-.67,2.89-2.01,3.77-1.34.88-2.92,1.32-4.75,1.32-1.44,0-2.68-.29-3.72-.88-1.05-.59-1.73-1.47-2.06-2.65l-3.72-13.52-22.64-.1c-.46,1.57-.9,3.05-1.32,4.46-.43,1.41-.8,2.7-1.13,3.87l-1.47,5c-.39,1.24-1.1,2.17-2.11,2.79-1.01.62-2.21.93-3.58.93-1.83,0-3.41-.46-4.75-1.37-1.34-.92-2.01-2.12-2.01-3.63,0-.33.06-.88.2-1.67l13.92-41.75,3.43-10.49c1.37-4.25,2.87-7.28,4.51-9.11,1.63-1.83,3.76-2.74,6.37-2.74s4.57.82,6.08,2.45c1.5,1.63,2.91,4.48,4.21,8.53,2.81,8.49,6.11,19.18,9.9,32.05h2.74c1.37,0,2.45.46,3.23,1.37.78.92,1.18,2.25,1.18,4.02,0,3.66-1.14,5.49-3.43,5.49h-.49l3.14,10.29ZM457.33,784.64c-1.96-7.32-3.66-13.39-5.1-18.23-.13-.46-.26-.85-.39-1.18-.13-.33-.23-.65-.29-.98-.52-1.83-.95-3.17-1.27-4.02-.33-.85-.65-1.27-.98-1.27s-.65.43-.98,1.27c-.33.85-.65,1.9-.98,3.14-.33,1.31-.56,2.16-.69,2.55l-5.59,18.62,16.27.1Z"/>
    <path d="M588.65,792.67c.13,5.88.2,10.45.2,13.72,0,1.83-.52,3.27-1.57,4.31-1.05,1.04-2.52,1.57-4.41,1.57s-3.38-.52-4.46-1.57c-1.08-1.04-1.62-2.38-1.62-4.02-.07-6.21-.1-15.22-.1-27.05,0-7.77-.25-13.62-.74-17.54-.49-3.92-1.16-5.88-2.01-5.88-1.24,0-3.43,4.21-6.57,12.64-1.24,3.4-2.65,8.46-4.21,15.19-.72,2.94-2.91,4.41-6.57,4.41-1.9,0-3.38-.34-4.46-1.03-1.08-.69-1.85-1.71-2.3-3.09l-1.08-4.02c-1.57-5.75-2.71-9.6-3.43-11.56-1.05-2.74-2.25-5.52-3.63-8.33-1.37-2.81-2.32-4.21-2.84-4.21-1.37,0-2.19,7.64-2.45,22.93-.07,2.22-.1,5.29-.1,9.21l.1,18.52c0,1.5-.56,2.7-1.67,3.58-1.11.88-2.65,1.32-4.61,1.32s-3.43-.51-4.41-1.52c-.98-1.01-1.47-2.66-1.47-4.95,0-3.14.06-7.58.2-13.33l.1-13.03c0-13.13,1-22.62,2.99-28.47,1.99-5.85,5.21-8.77,9.65-8.77,3.59,0,6.65,1.6,9.16,4.8,2.51,3.2,4.46,6.81,5.83,10.83,1.37,4.02,2.78,8.93,4.21,14.75,2.09-8.36,4.67-15.52,7.74-21.46,3.07-5.94,7.12-8.92,12.15-8.92,3.14,0,5.59,1.44,7.35,4.31s2.99,7.02,3.67,12.45c.69,5.42,1.06,12.35,1.13,20.78,0,3.2.06,7.68.2,13.43Z"/>
    <path d="M618.39,810.12c-1.47-.91-2.4-2.09-2.79-3.53-.92-3.79-1.7-7.12-2.35-10-1.7-7.9-3.53-15.25-5.49-22.05-2.35-8.69-3.5-12.87-3.43-12.54l-3.33-12.15c-.2-.59-.29-1.21-.29-1.86,0-1.63.64-2.96,1.91-3.97,1.27-1.01,2.89-1.52,4.85-1.52,1.37,0,2.48.29,3.33.88.85.59,1.47,1.6,1.86,3.04l2.45,9.21c2.02,7.38,3.43,12.81,4.21,16.27l1.96,9.11c.72,3.4,1.4,6.5,2.06,9.31.65,2.81,1.11,4.21,1.37,4.21.2,0,.59-.69,1.18-2.06s1.21-2.97,1.86-4.8c.33-.85.69-1.84,1.08-2.99.39-1.14.88-2.43,1.47-3.87.2-.46.8-1.96,1.81-4.51,1.01-2.55,2.02-4.38,3.04-5.49,1.01-1.11,2.07-1.67,3.18-1.67,1.57,0,2.94.9,4.12,2.69,1.18,1.8,2.74,4.95,4.7,9.46,1.96,4.9,3.38,8.31,4.26,10.24.88,1.93,1.49,2.89,1.81,2.89.2,0,.55-1.22,1.08-3.67.52-2.45,1.04-5.18,1.57-8.18l2.06-10.58.78-3.63c1.7-8.36,3.27-15.68,4.7-21.95.59-2.55,2.45-3.82,5.59-3.82,1.89,0,3.48.49,4.75,1.47,1.27.98,1.91,2.29,1.91,3.92,0,.46-.1.98-.29,1.57-1.63,6.21-3.63,14.5-5.98,24.89-.59,2.68-2.03,9.51-4.31,20.48-.13.72-.88,4.41-2.25,11.07-.39,1.7-1.22,3.01-2.5,3.92-1.27.92-2.92,1.37-4.95,1.37-2.16,0-4.05-.72-5.68-2.16-1.63-1.44-3.33-3.89-5.1-7.35-1.05-2.02-2.03-4.18-2.94-6.47-.65-1.5-1.27-2.84-1.86-4.02s-.98-1.76-1.18-1.76c-.26,0-1.05,1.76-2.35,5.29-1.24,3.33-2.22,5.78-2.94,7.35-1.63,3.46-3.22,5.88-4.75,7.25-1.54,1.37-3.28,2.06-5.24,2.06-1.83,0-3.48-.46-4.95-1.37Z"/>
    <path d="M741.72,806c.2.59.29,1.11.29,1.57,0,1.63-.67,2.89-2.01,3.77-1.34.88-2.92,1.32-4.75,1.32-1.44,0-2.68-.29-3.72-.88-1.05-.59-1.73-1.47-2.06-2.65l-3.72-13.52-22.64-.1c-.46,1.57-.9,3.05-1.32,4.46-.43,1.41-.8,2.7-1.13,3.87l-1.47,5c-.39,1.24-1.1,2.17-2.11,2.79-1.01.62-2.21.93-3.58.93-1.83,0-3.41-.46-4.75-1.37-1.34-.92-2.01-2.12-2.01-3.63,0-.33.06-.88.2-1.67l13.92-41.75,3.43-10.49c1.37-4.25,2.87-7.28,4.51-9.11,1.63-1.83,3.76-2.74,6.37-2.74s4.57.82,6.08,2.45c1.5,1.63,2.91,4.48,4.21,8.53,2.81,8.49,6.11,19.18,9.9,32.05h2.74c1.37,0,2.45.46,3.23,1.37.78.92,1.18,2.25,1.18,4.02,0,3.66-1.14,5.49-3.43,5.49h-.49l3.14,10.29ZM722.71,784.64c-1.96-7.32-3.66-13.39-5.1-18.23-.13-.46-.26-.85-.39-1.18-.13-.33-.23-.65-.29-.98-.52-1.83-.95-3.17-1.27-4.02-.33-.85-.65-1.27-.98-1.27s-.65.43-.98,1.27c-.33.85-.65,1.9-.98,3.14-.33,1.31-.56,2.16-.69,2.55l-5.59,18.62,16.27.1Z"/>
    <path d="M815.03,747.98c0,6.4-.03,11.11-.1,14.11l-.1,15.29c0,9.28-.26,16.24-.78,20.87-.52,4.64-1.44,7.84-2.74,9.6-1.31,1.76-3.27,2.65-5.88,2.65-2.22,0-4.36-.85-6.42-2.55-2.06-1.7-4.39-4.36-7.01-7.99-2.61-3.63-6.24-9.16-10.88-16.61l-1.18-1.86c-5.29-8.69-9.38-15.19-12.25-19.5.13,6.14.2,11.83.2,17.05l.1,26.56c0,1.44-.57,2.65-1.71,3.63-1.14.98-2.6,1.47-4.36,1.47s-3.22-.47-4.36-1.42c-1.14-.95-1.72-2.17-1.72-3.67v-26.95l-.1-12.05c-.07-2.35-.1-5.65-.1-9.9,0-3.72.2-6.6.59-8.62.39-2.02,1.09-3.49,2.11-4.41,1.01-.91,2.47-1.37,4.36-1.37,2.22,0,4.29.82,6.22,2.45,1.93,1.63,4.08,4.18,6.47,7.64,2.38,3.46,6.19,9.38,11.42,17.74l8.33,13.23c3.33,5.36,5.78,9.15,7.35,11.37.2-7.64.29-13.46.29-17.44l.1-30.48c0-1.57.51-2.83,1.52-3.77,1.01-.95,2.53-1.42,4.56-1.42,4.05,0,6.08,2.12,6.08,6.37Z"/>
    <path d="M883.53,806c.2.59.29,1.11.29,1.57,0,1.63-.67,2.89-2.01,3.77-1.34.88-2.92,1.32-4.75,1.32-1.44,0-2.68-.29-3.72-.88-1.05-.59-1.73-1.47-2.06-2.65l-3.72-13.52-22.64-.1c-.46,1.57-.9,3.05-1.32,4.46-.43,1.41-.8,2.7-1.13,3.87l-1.47,5c-.39,1.24-1.1,2.17-2.11,2.79-1.01.62-2.21.93-3.58.93-1.83,0-3.41-.46-4.75-1.37-1.34-.92-2.01-2.12-2.01-3.63,0-.33.06-.88.2-1.67l13.92-41.75,3.43-10.49c1.37-4.25,2.87-7.28,4.51-9.11,1.63-1.83,3.76-2.74,6.37-2.74s4.57.82,6.08,2.45c1.5,1.63,2.91,4.48,4.21,8.53,2.81,8.49,6.11,19.18,9.9,32.05h2.74c1.37,0,2.45.46,3.23,1.37.78.92,1.18,2.25,1.18,4.02,0,3.66-1.14,5.49-3.43,5.49h-.49l3.14,10.29ZM864.52,784.64c-1.96-7.32-3.66-13.39-5.1-18.23-.13-.46-.26-.85-.39-1.18-.13-.33-.23-.65-.29-.98-.52-1.83-.95-3.17-1.27-4.02-.33-.85-.65-1.27-.98-1.27s-.65.43-.98,1.27c-.33.85-.65,1.9-.98,3.14-.33,1.31-.56,2.16-.69,2.55l-5.59,18.62,16.27.1Z"/>
    <path d="M908.08,808.55c-3.76-2.02-6.65-4.69-8.67-7.99-2.03-3.3-3.04-6.88-3.04-10.73,0-2.02.52-3.51,1.57-4.46,1.04-.95,2.45-1.42,4.21-1.42,4.05,0,6.14,1.67,6.27,5,.13,3.79,1.42,6.71,3.87,8.77,2.45,2.06,5.34,3.09,8.67,3.09,2.94,0,5.49-.67,7.64-2.01,2.16-1.34,3.23-3.32,3.23-5.93,0-1.96-.65-3.59-1.96-4.9-1.31-1.31-2.91-2.35-4.8-3.14-1.9-.78-4.35-1.6-7.35-2.45-3.92-1.11-7.27-2.25-10.05-3.43-2.78-1.18-5.39-3.12-7.84-5.83-2.45-2.71-3.67-6.22-3.67-10.54,0-3.92,1.04-7.43,3.14-10.54,2.09-3.1,4.93-5.52,8.53-7.25,3.59-1.73,7.51-2.6,11.76-2.6s8.48.93,12.1,2.79,6.47,4.33,8.53,7.4c2.06,3.07,3.09,6.34,3.09,9.8,0,2.03-.51,3.46-1.52,4.31-1.01.85-2.5,1.27-4.46,1.27-1.83,0-3.17-.42-4.02-1.27-.85-.85-1.47-2.19-1.86-4.02-.39-2.61-1.62-4.87-3.67-6.76-2.06-1.89-4.79-2.84-8.18-2.84s-5.99.92-8.18,2.74c-2.19,1.83-3.28,4.21-3.28,7.15,0,1.76.55,3.17,1.67,4.21,1.11,1.05,2.48,1.88,4.12,2.5,1.63.62,4.61,1.58,8.92,2.89,3.46,1.05,6.66,2.27,9.6,3.67,2.94,1.41,5.57,3.48,7.89,6.22,2.32,2.74,3.48,6.21,3.48,10.39,0,3.72-1.01,7.02-3.04,9.9-2.03,2.88-4.79,5.1-8.28,6.66-3.5,1.57-7.33,2.35-11.52,2.35-4.84,0-9.13-1.01-12.89-3.04Z"/>
  </g>
  <g>
    <rect class="cls-2" x="34.32" y="868.62" width="1025.36" height="112.34"/>
    <path d="M236,890.72c.34.32.51.78.51,1.39,0,1.75-.48,3.35-1.44,4.81-.96,1.46-2.32,2.6-4.07,3.44s-3.75,1.25-6,1.25-4.51-.49-6.46-1.46c-1.95-.98-3.5-2.43-4.66-4.35-1.15-1.92-1.73-4.26-1.73-6.99s.55-5.21,1.65-7.41c1.1-2.2,2.59-3.92,4.46-5.15,1.87-1.23,3.93-1.84,6.16-1.84,1.54,0,2.92.26,4.12.78,1.2.52,2.2,1.22,2.98,2.11v-1.29c0-.43.16-.78.48-1.04.32-.27.75-.4,1.31-.4s1.03.15,1.35.44c.32.29.48.73.48,1.31v4.03c0,1.52-.61,2.28-1.82,2.28-.71,0-1.27-.28-1.67-.84-.91-1.22-1.88-2.18-2.89-2.89-1.01-.71-2.28-1.06-3.8-1.06-1.6,0-3.08.49-4.46,1.46-1.38.98-2.48,2.31-3.31,3.99-.82,1.68-1.23,3.55-1.23,5.6s.43,3.66,1.29,5.05c.86,1.39,1.99,2.45,3.4,3.17,1.41.72,2.91,1.08,4.5,1.08,1.27,0,2.48-.23,3.63-.68,1.15-.46,2.08-1.15,2.79-2.07.71-.92,1.06-2.05,1.06-3.36,0-.56.16-1,.49-1.33.33-.33.79-.49,1.37-.49.66,0,1.16.16,1.5.47Z"/>
    <path d="M241.85,899.2c-1.89-1.58-2.83-3.96-2.83-7.12,0-2,.4-3.77,1.2-5.32.8-1.54,1.94-2.75,3.42-3.61,1.48-.86,3.24-1.29,5.26-1.29s3.74.42,5.3,1.25c1.56.84,2.77,2.03,3.65,3.59.87,1.56,1.31,3.38,1.31,5.45,0,3.04-.91,5.37-2.74,6.99-1.82,1.62-4.24,2.43-7.26,2.43s-5.43-.79-7.31-2.38ZM253.65,896.92c1.17-1.1,1.75-2.72,1.75-4.84,0-1.37-.26-2.6-.78-3.71-.52-1.1-1.27-1.96-2.24-2.58-.98-.62-2.1-.93-3.36-.93-1.88,0-3.38.65-4.5,1.96-1.13,1.3-1.69,3.05-1.69,5.22s.6,3.88,1.79,4.94c1.19,1.06,2.69,1.6,4.48,1.6s3.39-.55,4.56-1.65Z"/>
    <path d="M277.72,884.41c1.13,1.53,1.69,3.82,1.69,6.86v8.78c0,.48-.17.84-.49,1.08-.33.24-.77.36-1.33.36s-1.03-.11-1.41-.34c-.38-.23-.57-.57-.57-1.03l.04-8.89c0-2.1-.23-3.63-.7-4.58-.47-.95-1.3-1.42-2.49-1.42-2.28,0-3.76,1.82-4.45,5.47-.23,1.12-.34,2.46-.34,4.03l.04,5.4c0,.46-.17.8-.49,1.04-.33.24-.77.36-1.33.36-.61,0-1.08-.13-1.43-.4-.34-.27-.51-.6-.51-1.01,0-2.53-.05-5.47-.15-8.82-.05-1.98-.08-3.34-.08-4.1-.03-.56-.11-.99-.25-1.31-.14-.32-.4-.79-.78-1.43-.1-.25-.15-.47-.15-.65,0-.38.22-.73.65-1.06.43-.33.85-.49,1.25-.49.43,0,.85.28,1.25.84.68.99,1.03,1.89,1.03,2.7v.46c.46-1.19,1.17-2.18,2.15-2.96.98-.79,2.29-1.18,3.93-1.18,2.15,0,3.79.77,4.92,2.3Z"/>
    <path d="M286.63,900.47c-1.27-.84-2.22-1.92-2.85-3.27-.18-.35-.27-.63-.27-.84.02-.43.27-.82.72-1.16.46-.34.91-.49,1.37-.44.25.05.45.15.59.28.14.14.34.37.59.7.68.94,1.34,1.65,1.96,2.15.62.49,1.44.74,2.45.74.94,0,1.72-.23,2.36-.68s.95-1.03.95-1.71c0-.73-.33-1.3-.99-1.69-.66-.39-1.7-.84-3.12-1.35-1.32-.43-2.39-.85-3.23-1.27s-1.55-1-2.15-1.75c-.6-.75-.89-1.7-.89-2.87,0-1.06.3-2.03.89-2.91.59-.87,1.42-1.56,2.49-2.05s2.27-.74,3.61-.74,2.57.26,3.61.78c1.04.52,1.84,1.21,2.39,2.07.56.86.84,1.8.84,2.81,0,.58-.13,1.01-.4,1.27-.27.27-.7.4-1.31.4s-1.01-.11-1.22-.32c-.2-.21-.32-.5-.34-.85-.1-.99-.45-1.74-1.04-2.26-.6-.52-1.44-.78-2.53-.78s-1.97.26-2.49.78c-.52.52-.78,1.1-.78,1.73,0,.76.34,1.34,1.01,1.75.67.41,1.74.86,3.21,1.37,1.32.46,2.39.89,3.21,1.29s1.53.97,2.11,1.69c.58.72.87,1.65.87,2.79,0,1.22-.34,2.24-1.01,3.08-.67.84-1.55,1.46-2.64,1.88-1.09.42-2.24.63-3.46.63-1.75,0-3.26-.42-4.52-1.25Z"/>
    <path d="M315.17,895.22c.25.25.38.68.38,1.29,0,1.44-.47,2.64-1.41,3.59-.94.95-2.13,1.42-3.57,1.42-2,0-3.45-.86-4.33-2.57s-1.33-4.39-1.33-8.04c0-1.29.04-2.58.11-3.88l-1.82-.11c-.99-.05-1.48-.57-1.48-1.56,0-.51.13-.88.4-1.12.27-.24.7-.35,1.31-.32l1.86.11c.15-1.6.44-3.81.87-6.65.15-.91.77-1.37,1.86-1.37.63,0,1.12.17,1.46.49.34.33.49.72.44,1.18-.35,2.2-.66,4.38-.91,6.54,1.37.05,2.27.08,2.7.08.48,0,.84.11,1.06.32.23.21.34.55.34,1.01,0,.56-.12.94-.36,1.16-.24.21-.68.34-1.31.36h-2.7c-.08,1.22-.11,2.47-.11,3.76,0,2.56.16,4.45.49,5.68.33,1.23.91,1.84,1.75,1.84.96,0,1.48-.75,1.56-2.24,0-.46.11-.8.32-1.03.21-.23.6-.34,1.16-.34s1,.13,1.25.38Z"/>
    <path d="M335.23,898.21c.13.39.28.74.46,1.04s.27.49.27.57c0,.41-.17.76-.51,1.06-.34.3-.73.46-1.16.46-.51,0-1-.32-1.48-.97-.48-.65-.72-1.29-.72-1.92v-.23c-.51,1.06-1.25,1.88-2.24,2.45-.99.57-2.18.86-3.57.86-2.15,0-3.79-.75-4.92-2.26-1.13-1.51-1.69-3.6-1.69-6.29v-9.23c0-.43.17-.77.51-1.03.34-.25.78-.38,1.31-.38s1.02.13,1.39.38c.37.25.55.6.55,1.03v9.27c0,3.67,1.1,5.51,3.31,5.51,1.54,0,2.67-.7,3.36-2.11.7-1.41,1.05-3.44,1.05-6.1v-6.57c0-.51.16-.91.49-1.2.33-.29.77-.44,1.33-.44s1.05.15,1.41.46c.35.3.53.7.53,1.18l.15,12.96c0,.61.06,1.11.19,1.5Z"/>
    <path d="M342.79,879.78c-.51-.52-.76-1.17-.76-1.96s.26-1.39.78-1.9c.52-.51,1.18-.76,2-.76s1.46.24,1.96.72c.49.48.74,1.12.74,1.9s-.26,1.44-.78,1.98c-.52.53-1.18.8-2,.8s-1.43-.26-1.94-.78ZM342.79,900.85c-.35-.28-.53-.67-.53-1.18l.38-15.43c0-.51.18-.91.53-1.2.35-.29.81-.44,1.37-.44s1.02.15,1.39.46c.37.3.55.71.55,1.22l-.38,15.43c-.03.51-.21.89-.55,1.16-.34.27-.79.4-1.35.4s-1.05-.14-1.41-.42Z"/>
    <path d="M355.26,900.47c-1.27-.84-2.22-1.92-2.85-3.27-.18-.35-.27-.63-.27-.84.02-.43.27-.82.72-1.16.46-.34.91-.49,1.37-.44.25.05.45.15.59.28.14.14.34.37.59.7.68.94,1.34,1.65,1.96,2.15.62.49,1.44.74,2.45.74.94,0,1.72-.23,2.36-.68s.95-1.03.95-1.71c0-.73-.33-1.3-.99-1.69-.66-.39-1.7-.84-3.12-1.35-1.32-.43-2.39-.85-3.23-1.27s-1.55-1-2.15-1.75c-.6-.75-.89-1.7-.89-2.87,0-1.06.3-2.03.89-2.91.59-.87,1.42-1.56,2.49-2.05s2.27-.74,3.61-.74,2.57.26,3.61.78c1.04.52,1.84,1.21,2.39,2.07.56.86.84,1.8.84,2.81,0,.58-.13,1.01-.4,1.27-.27.27-.7.4-1.31.4s-1.01-.11-1.22-.32c-.2-.21-.32-.5-.34-.85-.1-.99-.45-1.74-1.04-2.26-.6-.52-1.44-.78-2.53-.78s-1.97.26-2.49.78c-.52.52-.78,1.1-.78,1.73,0,.76.34,1.34,1.01,1.75.67.41,1.74.86,3.21,1.37,1.32.46,2.39.89,3.21,1.29s1.53.97,2.11,1.69c.58.72.87,1.65.87,2.79,0,1.22-.34,2.24-1.01,3.08-.67.84-1.55,1.46-2.64,1.88-1.09.42-2.24.63-3.46.63-1.75,0-3.26-.42-4.52-1.25Z"/>
    <path d="M373.21,899.2c-1.89-1.58-2.83-3.96-2.83-7.12,0-2,.4-3.77,1.2-5.32.8-1.54,1.94-2.75,3.42-3.61,1.48-.86,3.24-1.29,5.26-1.29s3.74.42,5.3,1.25c1.56.84,2.77,2.03,3.65,3.59.87,1.56,1.31,3.38,1.31,5.45,0,3.04-.91,5.37-2.74,6.99-1.82,1.62-4.24,2.43-7.26,2.43s-5.43-.79-7.31-2.38ZM385.01,896.92c1.17-1.1,1.75-2.72,1.75-4.84,0-1.37-.26-2.6-.78-3.71-.52-1.1-1.27-1.96-2.24-2.58-.98-.62-2.1-.93-3.36-.93-1.88,0-3.38.65-4.5,1.96-1.13,1.3-1.69,3.05-1.69,5.22s.6,3.88,1.79,4.94c1.19,1.06,2.69,1.6,4.48,1.6s3.39-.55,4.56-1.65Z"/>
    <path d="M409.08,884.41c1.13,1.53,1.69,3.82,1.69,6.86v8.78c0,.48-.17.84-.49,1.08-.33.24-.77.36-1.33.36s-1.03-.11-1.41-.34c-.38-.23-.57-.57-.57-1.03l.04-8.89c0-2.1-.23-3.63-.7-4.58s-1.3-1.42-2.49-1.42c-2.28,0-3.76,1.82-4.45,5.47-.23,1.12-.34,2.46-.34,4.03l.04,5.4c0,.46-.17.8-.49,1.04-.33.24-.77.36-1.33.36-.61,0-1.08-.13-1.42-.4-.34-.27-.51-.6-.51-1.01,0-2.53-.05-5.47-.15-8.82-.05-1.98-.08-3.34-.08-4.1-.03-.56-.11-.99-.25-1.31-.14-.32-.4-.79-.78-1.43-.1-.25-.15-.47-.15-.65,0-.38.22-.73.65-1.06.43-.33.85-.49,1.25-.49.43,0,.85.28,1.25.84.68.99,1.03,1.89,1.03,2.7v.46c.46-1.19,1.17-2.18,2.15-2.96.97-.79,2.29-1.18,3.93-1.18,2.15,0,3.79.77,4.92,2.3Z"/>
    <path d="M417.99,900.47c-1.27-.84-2.22-1.92-2.85-3.27-.18-.35-.27-.63-.27-.84.02-.43.27-.82.72-1.16s.91-.49,1.37-.44c.25.05.45.15.59.28.14.14.34.37.59.7.68.94,1.34,1.65,1.96,2.15s1.44.74,2.45.74c.94,0,1.72-.23,2.36-.68.63-.46.95-1.03.95-1.71,0-.73-.33-1.3-.99-1.69-.66-.39-1.7-.84-3.12-1.35-1.32-.43-2.39-.85-3.23-1.27-.84-.42-1.55-1-2.15-1.75-.6-.75-.89-1.7-.89-2.87,0-1.06.3-2.03.89-2.91.59-.87,1.42-1.56,2.49-2.05,1.06-.49,2.27-.74,3.61-.74s2.57.26,3.61.78c1.04.52,1.84,1.21,2.39,2.07.56.86.84,1.8.84,2.81,0,.58-.13,1.01-.4,1.27-.27.27-.7.4-1.31.4s-1.01-.11-1.22-.32c-.2-.21-.32-.5-.34-.85-.1-.99-.45-1.74-1.04-2.26-.6-.52-1.44-.78-2.53-.78s-1.97.26-2.49.78c-.52.52-.78,1.1-.78,1.73,0,.76.33,1.34,1.01,1.75.67.41,1.74.86,3.21,1.37,1.32.46,2.39.89,3.21,1.29s1.53.97,2.11,1.69c.58.72.87,1.65.87,2.79,0,1.22-.34,2.24-1.01,3.08-.67.84-1.55,1.46-2.64,1.88s-2.24.63-3.46.63c-1.75,0-3.25-.42-4.52-1.25Z"/>
    <path d="M462.49,898.21c.13.39.28.74.46,1.04.18.3.27.49.27.57,0,.41-.17.76-.51,1.06-.34.3-.73.46-1.16.46-.51,0-1-.32-1.48-.97-.48-.65-.72-1.29-.72-1.92v-.23c-.51,1.06-1.25,1.88-2.24,2.45-.99.57-2.18.86-3.57.86-2.15,0-3.79-.75-4.92-2.26-1.13-1.51-1.69-3.6-1.69-6.29v-9.23c0-.43.17-.77.51-1.03.34-.25.78-.38,1.31-.38s1.02.13,1.39.38c.37.25.55.6.55,1.03v9.27c0,3.67,1.1,5.51,3.31,5.51,1.54,0,2.67-.7,3.36-2.11.7-1.41,1.04-3.44,1.04-6.1v-6.57c0-.51.16-.91.49-1.2.33-.29.77-.44,1.33-.44s1.05.15,1.41.46.53.7.53,1.18l.15,12.96c0,.61.06,1.11.19,1.5Z"/>
    <path d="M482.88,884.41c1.13,1.53,1.69,3.82,1.69,6.86v8.78c0,.48-.17.84-.49,1.08-.33.24-.77.36-1.33.36s-1.03-.11-1.41-.34c-.38-.23-.57-.57-.57-1.03l.04-8.89c0-2.1-.23-3.63-.7-4.58s-1.3-1.42-2.49-1.42c-2.28,0-3.76,1.82-4.45,5.47-.23,1.12-.34,2.46-.34,4.03l.04,5.4c0,.46-.17.8-.49,1.04-.33.24-.77.36-1.33.36-.61,0-1.08-.13-1.42-.4-.34-.27-.51-.6-.51-1.01,0-2.53-.05-5.47-.15-8.82-.05-1.98-.08-3.34-.08-4.1-.03-.56-.11-.99-.25-1.31-.14-.32-.4-.79-.78-1.43-.1-.25-.15-.47-.15-.65,0-.38.21-.73.65-1.06.43-.33.85-.49,1.25-.49.43,0,.85.28,1.25.84.68.99,1.03,1.89,1.03,2.7v.46c.46-1.19,1.17-2.18,2.15-2.96.97-.79,2.29-1.18,3.93-1.18,2.15,0,3.79.77,4.92,2.3Z"/>
    <path d="M525.82,884.58c.97,1.6,1.46,3.8,1.46,6.61l-.08,8.82c0,.46-.15.82-.46,1.08-.3.27-.74.4-1.29.4s-1-.14-1.33-.42c-.33-.28-.49-.67-.49-1.18v-8.7c0-2.2-.22-3.78-.67-4.73-.44-.95-1.25-1.42-2.41-1.42-1.01,0-1.79.62-2.34,1.86s-.83,2.8-.85,4.67v8.32c0,1.01-.6,1.52-1.79,1.52-1.29,0-1.94-.52-1.94-1.56l.04-6.57v-1.71c0-1.8-.3-3.31-.89-4.54-.6-1.23-1.42-1.84-2.49-1.84-1.57,0-2.72,1.74-3.46,5.21-.2,1.09-.3,2.66-.3,4.71v4.98c0,.41-.17.73-.51.97-.34.24-.74.36-1.2.36-.56,0-1.01-.11-1.35-.34-.34-.23-.51-.57-.51-1.03,0-5.5-.01-9.83-.04-13-.03-.61-.09-1.06-.21-1.35-.11-.29-.29-.54-.51-.74-.03-.02-.11-.1-.25-.23-.14-.13-.21-.3-.21-.53,0-.48.18-.87.53-1.18.35-.3.75-.46,1.18-.46s.89.34,1.37,1.03c.48.63.72,1.37.72,2.2v.53c.43-1.24,1.06-2.22,1.9-2.95.84-.72,1.86-1.08,3.08-1.08,2.43,0,4.07,1.25,4.9,3.76.43-1.24,1.12-2.2,2.05-2.87.94-.67,2.06-1.01,3.38-1.01,2.33,0,3.98.8,4.96,2.39Z"/>
    <path d="M533.95,899.2c-1.89-1.58-2.83-3.96-2.83-7.12,0-2,.4-3.77,1.2-5.32.8-1.54,1.94-2.75,3.42-3.61,1.48-.86,3.24-1.29,5.26-1.29s3.74.42,5.3,1.25c1.56.84,2.77,2.03,3.65,3.59.87,1.56,1.31,3.38,1.31,5.45,0,3.04-.91,5.37-2.74,6.99-1.82,1.62-4.24,2.43-7.26,2.43s-5.43-.79-7.31-2.38ZM545.75,896.92c1.17-1.1,1.75-2.72,1.75-4.84,0-1.37-.26-2.6-.78-3.71-.52-1.1-1.27-1.96-2.24-2.58-.98-.62-2.1-.93-3.36-.93-1.87,0-3.38.65-4.5,1.96-1.13,1.3-1.69,3.05-1.69,5.22s.59,3.88,1.79,4.94c1.19,1.06,2.68,1.6,4.48,1.6s3.39-.55,4.56-1.65Z"/>
    <path d="M569.82,884.41c1.13,1.53,1.69,3.82,1.69,6.86v8.78c0,.48-.17.84-.49,1.08-.33.24-.77.36-1.33.36s-1.03-.11-1.41-.34c-.38-.23-.57-.57-.57-1.03l.04-8.89c0-2.1-.23-3.63-.7-4.58s-1.3-1.42-2.49-1.42c-2.28,0-3.76,1.82-4.45,5.47-.23,1.12-.34,2.46-.34,4.03l.04,5.4c0,.46-.17.8-.49,1.04-.33.24-.77.36-1.33.36-.61,0-1.08-.13-1.42-.4-.34-.27-.51-.6-.51-1.01,0-2.53-.05-5.47-.15-8.82-.05-1.98-.08-3.34-.08-4.1-.03-.56-.11-.99-.25-1.31-.14-.32-.4-.79-.78-1.43-.1-.25-.15-.47-.15-.65,0-.38.21-.73.65-1.06.43-.33.85-.49,1.25-.49.43,0,.85.28,1.25.84.68.99,1.03,1.89,1.03,2.7v.46c.46-1.19,1.17-2.18,2.15-2.96.97-.79,2.29-1.18,3.93-1.18,2.15,0,3.79.77,4.92,2.3Z"/>
    <path d="M580.69,900.6c-1.51-.75-2.7-1.86-3.57-3.34-.87-1.48-1.31-3.29-1.31-5.42,0-1.98.4-3.7,1.22-5.17.81-1.47,1.96-2.6,3.46-3.38,1.49-.79,3.24-1.18,5.24-1.18,1.29,0,2.42.18,3.38.53.96.35,1.75.81,2.36,1.37.15-6.1.34-10.74.57-13.91.05-.43.25-.79.59-1.06.34-.28.77-.42,1.27-.42.58,0,1.06.15,1.42.46.37.3.54.7.51,1.18-.18,1.67-.34,4.74-.47,9.2-.14,4.46-.21,8.44-.21,11.93s.08,5.36.23,5.97c.28,1.04.66,1.68,1.14,1.94.1.05.15.23.15.53,0,.46-.21.87-.63,1.25s-.88.57-1.39.57c-.43,0-.77-.1-1.03-.3-.89-.51-1.48-1.39-1.79-2.66-.63.94-1.48,1.68-2.55,2.22-1.06.54-2.25.82-3.57.82-1.85,0-3.53-.37-5.04-1.12ZM588.44,897.88c.87-.46,1.58-1.06,2.11-1.8.53-.75.8-1.54.8-2.38,0-1.17.01-2.08.04-2.74l.04-3.04c-.38-.66-1.1-1.27-2.15-1.84-1.05-.57-2.2-.85-3.44-.85-1.92,0-3.45.59-4.58,1.79-1.13,1.19-1.69,2.84-1.69,4.94,0,1.44.3,2.67.89,3.67.59,1,1.36,1.74,2.28,2.22.92.48,1.91.72,2.95.72.96,0,1.88-.23,2.75-.68Z"/>
    <path d="M604.55,900.39c-1.53-.89-2.69-2.08-3.46-3.57s-1.16-3.14-1.16-4.94.42-3.53,1.25-5.04c.84-1.51,2.01-2.7,3.53-3.57,1.52-.87,3.25-1.31,5.21-1.31,1.72,0,3.27.35,4.66,1.04,1.38.7,2.46,1.68,3.25,2.95s1.18,2.71,1.18,4.33c0,.86-.13,1.48-.38,1.84-.25.37-.77.56-1.56.59l-13.72.19c0,.84.27,1.7.8,2.58.53.89,1.3,1.63,2.3,2.22,1,.6,2.17.89,3.51.89.96,0,1.78-.13,2.45-.4.67-.27,1.21-.58,1.62-.95.4-.37.89-.85,1.44-1.46.28-.28.63-.42,1.06-.42.41,0,.79.16,1.16.48.37.32.55.68.55,1.08,0,.33-.11.65-.34.95-.71,1.01-1.66,1.91-2.85,2.68s-2.85,1.16-4.98,1.16-4-.44-5.53-1.33ZM615.44,890.02c.15,0,.26-.04.32-.13.06-.09.1-.22.1-.4,0-1.34-.56-2.44-1.69-3.29-1.13-.85-2.54-1.27-4.24-1.27-1.29,0-2.44.3-3.44.91-1,.61-1.77,1.34-2.32,2.19s-.82,1.59-.82,2.22l12.08-.23Z"/>
    <path d="M638.69,900.47c-1.27-.84-2.22-1.92-2.85-3.27-.18-.35-.27-.63-.27-.84.02-.43.27-.82.72-1.16s.91-.49,1.37-.44c.25.05.45.15.59.28.14.14.34.37.59.7.68.94,1.34,1.65,1.96,2.15s1.44.74,2.45.74c.94,0,1.72-.23,2.36-.68.63-.46.95-1.03.95-1.71,0-.73-.33-1.3-.99-1.69-.66-.39-1.7-.84-3.12-1.35-1.32-.43-2.39-.85-3.23-1.27-.84-.42-1.55-1-2.15-1.75-.6-.75-.89-1.7-.89-2.87,0-1.06.3-2.03.89-2.91.59-.87,1.42-1.56,2.49-2.05,1.06-.49,2.27-.74,3.61-.74s2.57.26,3.61.78c1.04.52,1.84,1.21,2.39,2.07.56.86.84,1.8.84,2.81,0,.58-.13,1.01-.4,1.27-.27.27-.7.4-1.31.4s-1.01-.11-1.22-.32c-.2-.21-.32-.5-.34-.85-.1-.99-.45-1.74-1.04-2.26-.6-.52-1.44-.78-2.53-.78s-1.97.26-2.49.78c-.52.52-.78,1.1-.78,1.73,0,.76.33,1.34,1.01,1.75.67.41,1.74.86,3.21,1.37,1.32.46,2.39.89,3.21,1.29s1.53.97,2.11,1.69c.58.72.87,1.65.87,2.79,0,1.22-.34,2.24-1.01,3.08-.67.84-1.55,1.46-2.64,1.88s-2.24.63-3.46.63c-1.75,0-3.25-.42-4.52-1.25Z"/>
    <path d="M673.75,898.83c.21.2.32.54.32,1.03,0,.46-.11.84-.34,1.14-.23.3-.54.46-.95.46-1.04,0-1.82-.15-2.34-.46-.52-.3-.99-.87-1.42-1.71-1.06,1.72-3.04,2.58-5.93,2.58s-5.11-.89-6.5-2.68c-1.39-1.79-2.09-4.01-2.09-6.67,0-1.77.35-3.41,1.06-4.9.71-1.49,1.75-2.68,3.12-3.57,1.37-.89,2.96-1.33,4.79-1.33,1.17,0,2.2.23,3.1.68.9.46,1.58,1.08,2.03,1.86l.11-.95c.1-.91.65-1.37,1.63-1.37.66,0,1.13.15,1.41.44.28.29.39.65.34,1.08-.25,1.9-.41,3.33-.46,4.29-.08.91-.11,2.1-.11,3.57v2.51c0,1.32.07,2.23.21,2.74.14.51.51.8,1.12.87.38.05.68.18.89.38ZM667.84,890.17c0-1.04-.22-1.89-.67-2.55-.44-.66-.99-1.14-1.63-1.44-.65-.3-1.3-.46-1.96-.46-1.14,0-2.11.34-2.91,1.01-.8.67-1.39,1.53-1.79,2.56-.39,1.04-.59,2.12-.59,3.23,0,1.7.4,3.17,1.2,4.43.8,1.25,2.05,1.88,3.74,1.88,1.34,0,2.43-.34,3.27-1.03.84-.68,1.27-1.67,1.29-2.96.02-1.14.04-2.7.04-4.67Z"/>
    <path d="M693.35,884.41c1.13,1.53,1.69,3.82,1.69,6.86v8.78c0,.48-.17.84-.49,1.08-.33.24-.77.36-1.33.36s-1.03-.11-1.41-.34c-.38-.23-.57-.57-.57-1.03l.04-8.89c0-2.1-.23-3.63-.7-4.58s-1.3-1.42-2.49-1.42c-2.28,0-3.76,1.82-4.45,5.47-.23,1.12-.34,2.46-.34,4.03l.04,5.4c0,.46-.17.8-.49,1.04-.33.24-.77.36-1.33.36-.61,0-1.08-.13-1.42-.4-.34-.27-.51-.6-.51-1.01,0-2.53-.05-5.47-.15-8.82-.05-1.98-.08-3.34-.08-4.1-.03-.56-.11-.99-.25-1.31-.14-.32-.4-.79-.78-1.43-.1-.25-.15-.47-.15-.65,0-.38.21-.73.65-1.06.43-.33.85-.49,1.25-.49.43,0,.85.28,1.25.84.68.99,1.03,1.89,1.03,2.7v.46c.46-1.19,1.17-2.18,2.15-2.96.97-.79,2.29-1.18,3.93-1.18,2.15,0,3.79.77,4.92,2.3Z"/>
    <path d="M702.26,900.47c-1.27-.84-2.22-1.92-2.85-3.27-.18-.35-.27-.63-.27-.84.02-.43.27-.82.72-1.16s.91-.49,1.37-.44c.25.05.45.15.59.28.14.14.34.37.59.7.68.94,1.34,1.65,1.96,2.15s1.44.74,2.45.74c.94,0,1.72-.23,2.36-.68.63-.46.95-1.03.95-1.71,0-.73-.33-1.3-.99-1.69-.66-.39-1.7-.84-3.12-1.35-1.32-.43-2.39-.85-3.23-1.27-.84-.42-1.55-1-2.15-1.75-.6-.75-.89-1.7-.89-2.87,0-1.06.3-2.03.89-2.91.59-.87,1.42-1.56,2.49-2.05,1.06-.49,2.27-.74,3.61-.74s2.57.26,3.61.78c1.04.52,1.84,1.21,2.39,2.07.56.86.84,1.8.84,2.81,0,.58-.13,1.01-.4,1.27-.27.27-.7.4-1.31.4s-1.01-.11-1.22-.32c-.2-.21-.32-.5-.34-.85-.1-.99-.45-1.74-1.04-2.26-.6-.52-1.44-.78-2.53-.78s-1.97.26-2.49.78c-.52.52-.78,1.1-.78,1.73,0,.76.33,1.34,1.01,1.75.67.41,1.74.86,3.21,1.37,1.32.46,2.39.89,3.21,1.29s1.53.97,2.11,1.69c.58.72.87,1.65.87,2.79,0,1.22-.34,2.24-1.01,3.08-.67.84-1.55,1.46-2.64,1.88s-2.24.63-3.46.63c-1.75,0-3.25-.42-4.52-1.25Z"/>
    <path d="M732.74,893.1c-.61-1.75-1.13-3.5-1.56-5.24s-.65-2.99-.65-3.72c0-.58.17-1.02.51-1.31s.8-.44,1.39-.44c.48,0,.89.13,1.22.38.33.25.53.62.61,1.1.3,2.28.89,4.81,1.75,7.6.48,1.5.99,2.83,1.54,4.01.54,1.18.93,1.77,1.16,1.77.25,0,.67-.59,1.25-1.77.58-1.18,1.14-2.53,1.67-4.05.58-1.8,1.01-3.27,1.27-4.43.27-1.15.46-2.25.59-3.29.05-.46.24-.82.57-1.1.33-.28.77-.42,1.33-.42s1.04.17,1.37.49.49.79.49,1.37c0,.76-.22,1.98-.67,3.65s-1.01,3.42-1.69,5.24c-1.04,2.71-2.07,4.79-3.08,6.23-1.01,1.44-2.05,2.17-3.12,2.17-2,0-3.99-2.75-5.97-8.25Z"/>
    <path d="M753.45,879.78c-.51-.52-.76-1.17-.76-1.96s.26-1.39.78-1.9c.52-.51,1.18-.76,2-.76s1.46.24,1.96.72c.49.48.74,1.12.74,1.9s-.26,1.44-.78,1.98c-.52.53-1.18.8-2,.8s-1.43-.26-1.94-.78ZM753.45,900.85c-.36-.28-.53-.67-.53-1.18l.38-15.43c0-.51.18-.91.53-1.2.35-.29.81-.44,1.37-.44s1.02.15,1.39.46c.37.3.55.71.55,1.22l-.38,15.43c-.03.51-.21.89-.55,1.16s-.79.4-1.35.4-1.05-.14-1.41-.42Z"/>
    <path d="M765.17,899.2c-1.89-1.58-2.83-3.96-2.83-7.12,0-2,.4-3.77,1.2-5.32.8-1.54,1.94-2.75,3.42-3.61,1.48-.86,3.24-1.29,5.26-1.29s3.74.42,5.3,1.25c1.56.84,2.77,2.03,3.65,3.59.87,1.56,1.31,3.38,1.31,5.45,0,3.04-.91,5.37-2.74,6.99-1.82,1.62-4.24,2.43-7.26,2.43s-5.43-.79-7.32-2.38ZM776.97,896.92c1.17-1.1,1.75-2.72,1.75-4.84,0-1.37-.26-2.6-.78-3.71-.52-1.1-1.27-1.96-2.24-2.58-.98-.62-2.1-.93-3.36-.93-1.88,0-3.38.65-4.5,1.96-1.13,1.3-1.69,3.05-1.69,5.22s.59,3.88,1.79,4.94c1.19,1.06,2.68,1.6,4.48,1.6s3.39-.55,4.56-1.65Z"/>
    <path d="M787.19,900.7c-.33-.3-.49-.7-.49-1.18l-.23-26.45c0-.51.18-.91.55-1.22.37-.3.83-.46,1.39-.46s1,.15,1.33.46c.33.3.49.7.49,1.18l.19,26.45c0,.51-.18.91-.53,1.22-.36.3-.81.46-1.37.46s-1-.15-1.33-.46Z"/>
    <path d="M800.13,900.39c-1.53-.89-2.69-2.08-3.46-3.57s-1.16-3.14-1.16-4.94.42-3.53,1.25-5.04c.84-1.51,2.01-2.7,3.53-3.57,1.52-.87,3.25-1.31,5.21-1.31,1.72,0,3.27.35,4.66,1.04,1.38.7,2.46,1.68,3.25,2.95s1.18,2.71,1.18,4.33c0,.86-.13,1.48-.38,1.84-.25.37-.77.56-1.56.59l-13.72.19c0,.84.27,1.7.8,2.58.53.89,1.3,1.63,2.3,2.22,1,.6,2.17.89,3.51.89.96,0,1.78-.13,2.45-.4.67-.27,1.21-.58,1.62-.95.4-.37.89-.85,1.44-1.46.28-.28.63-.42,1.06-.42.41,0,.79.16,1.16.48.37.32.55.68.55,1.08,0,.33-.11.65-.34.95-.71,1.01-1.66,1.91-2.85,2.68s-2.85,1.16-4.98,1.16-4-.44-5.53-1.33ZM811.02,890.02c.15,0,.26-.04.32-.13.06-.09.1-.22.1-.4,0-1.34-.56-2.44-1.69-3.29-1.13-.85-2.54-1.27-4.24-1.27-1.29,0-2.44.3-3.44.91-1,.61-1.77,1.34-2.32,2.19s-.82,1.59-.82,2.22l12.08-.23Z"/>
    <path d="M834.03,884.41c1.13,1.53,1.69,3.82,1.69,6.86v8.78c0,.48-.17.84-.49,1.08-.33.24-.77.36-1.33.36s-1.03-.11-1.41-.34c-.38-.23-.57-.57-.57-1.03l.04-8.89c0-2.1-.23-3.63-.7-4.58s-1.3-1.42-2.49-1.42c-2.28,0-3.76,1.82-4.45,5.47-.23,1.12-.34,2.46-.34,4.03l.04,5.4c0,.46-.17.8-.49,1.04-.33.24-.77.36-1.33.36-.61,0-1.08-.13-1.42-.4-.34-.27-.51-.6-.51-1.01,0-2.53-.05-5.47-.15-8.82-.05-1.98-.08-3.34-.08-4.1-.03-.56-.11-.99-.25-1.31-.14-.32-.4-.79-.78-1.43-.1-.25-.15-.47-.15-.65,0-.38.21-.73.65-1.06.43-.33.85-.49,1.25-.49.43,0,.85.28,1.25.84.68.99,1.03,1.89,1.03,2.7v.46c.46-1.19,1.17-2.18,2.15-2.96.97-.79,2.29-1.18,3.93-1.18,2.15,0,3.79.77,4.92,2.3Z"/>
    <path d="M844.42,900.28c-1.44-.81-2.55-1.91-3.32-3.31-.77-1.39-1.16-2.96-1.16-4.71s.4-3.53,1.2-5.11c.8-1.58,1.94-2.84,3.42-3.78,1.48-.94,3.21-1.41,5.19-1.41,2.13,0,3.93.51,5.4,1.54,1.47,1.03,2.5,2.29,3.08,3.78.15.3.23.6.23.87,0,.58-.41.99-1.22,1.22-.3.05-.49.08-.57.08-.38,0-.7-.11-.95-.32-.25-.21-.49-.54-.72-.97-.41-.89-1.04-1.64-1.9-2.26s-1.9-.93-3.12-.93-2.34.33-3.29.99c-.95.66-1.69,1.55-2.2,2.66-.52,1.12-.78,2.32-.78,3.61,0,1.85.53,3.36,1.58,4.52,1.05,1.17,2.55,1.75,4.5,1.75,1.24,0,2.29-.24,3.15-.72.86-.48,1.5-1.09,1.92-1.82.42-.73.65-1.48.7-2.24,0-.33.13-.6.4-.82.27-.21.64-.32,1.12-.32.61,0,1.07.12,1.39.36.32.24.48.67.48,1.27-.03,1.17-.39,2.31-1.08,3.42-.7,1.12-1.74,2.04-3.14,2.77-1.39.73-3.12,1.1-5.17,1.1s-3.69-.41-5.13-1.22Z"/>
    <path d="M867.12,900.39c-1.53-.89-2.69-2.08-3.46-3.57s-1.16-3.14-1.16-4.94.42-3.53,1.25-5.04c.84-1.51,2.01-2.7,3.53-3.57,1.52-.87,3.25-1.31,5.21-1.31,1.72,0,3.27.35,4.66,1.04,1.38.7,2.46,1.68,3.25,2.95s1.18,2.71,1.18,4.33c0,.86-.13,1.48-.38,1.84-.25.37-.77.56-1.56.59l-13.72.19c0,.84.27,1.7.8,2.58.53.89,1.3,1.63,2.3,2.22,1,.6,2.17.89,3.51.89.96,0,1.78-.13,2.45-.4.67-.27,1.21-.58,1.62-.95.4-.37.89-.85,1.44-1.46.28-.28.63-.42,1.06-.42.41,0,.79.16,1.16.48.37.32.55.68.55,1.08,0,.33-.11.65-.34.95-.71,1.01-1.66,1.91-2.85,2.68s-2.85,1.16-4.98,1.16-4-.44-5.53-1.33ZM878.01,890.02c.15,0,.26-.04.32-.13.06-.09.1-.22.1-.4,0-1.34-.56-2.44-1.69-3.29-1.13-.85-2.54-1.27-4.24-1.27-1.29,0-2.44.3-3.44.91-1,.61-1.77,1.34-2.32,2.19s-.82,1.59-.82,2.22l12.08-.23Z"/>
  </g>
</svg>